<svg xmlns="http://www.w3.org/2000/svg" width="43" height="57" viewBox="0 0 43 57"><g><g><path fill="#2f2f2f" d="M40.188 25.486c-1.433-1.716-6.923-7.332-15.63-4.782.016-1.251-.03-2.273-.18-2.853-.056-.21-.14-.403-.22-.598l.488-.369.054-.033-.003-.005 5.07-3.839a.836.836 0 0 0 .253-.995c-2.334-5.416-.93-9.402.412-11.594a.278.278 0 0 0-.061-.36.26.26 0 0 0-.354.02c-4.83 4.97-1.823 11.798-1.823 11.798l-5.05 3.67a5.516 5.516 0 0 0-1.626-1.275c1.676-1.209 2.596-2.804 2.218-4.259-.297-1.147-1.493-2.56-3.07-3.548-.147-1.22-.797-4.208-3.618-4.574a.333.333 0 0 0-.347.198c-.06.137-.028.3.082.401.554.517 1.104 1.414.849 2.86-.79-.107-1.46-.088-2.089.073-.625.17-1.22.484-1.856.967-.925-1.136-.88-2.189-.648-2.913a.354.354 0 0 0-.124-.39.33.33 0 0 0-.398 0c-2.283 1.71-1.4 4.635-.936 5.773-.894 1.64-1.251 3.462-.954 4.61.378 1.454 1.954 2.391 4.003 2.618a5.578 5.578 0 0 0-.8 1.915l-6.185-.709S6.952 9.854.328 7.904a.262.262 0 0 0-.318.158.278.278 0 0 0 .12.344c2.235 1.25 5.395 4.033 5.988 9.907a.829.829 0 0 0 .705.743l6.285.845-.001.006.064.003.603.08c.026.21.046.42.1.63.15.58.606 1.494 1.228 2.577C6.272 25.27 4.21 32.877 3.793 35.08a.73.73 0 0 0 .441.814.665.665 0 0 0 .56-.031.689.689 0 0 0 .344-.451c2.101-8.891 9.527-10.585 11.006-10.837 1.041 1.6 2.484 4.125 2.484 4.125-3.492 1.605-5.619 4.357-4.628 8.475l-5.385 3.401a.882.882 0 0 0-.4.833l.903 8.89.006.064c.013.117.056.23.13.33l4.727 6.228a.225.225 0 0 0 .288.064.233.233 0 0 0 .09-.314l-3.551-6.705-.83-8.176 4.677-2.954c2.144 3.96 8.413 9.006 11.295 11.198.353.268.802.363 1.227.261h.004l.003-.001c.42-.122.765-.425.943-.834 1.45-3.333 4.466-10.828 4.413-15.34l5.513.269 3.245 7.539.159 7.6c.002.127.106.23.23.228a.226.226 0 0 0 .22-.197l1.099-7.764a.672.672 0 0 0-.047-.351l-.025-.06-3.529-8.197a.872.872 0 0 0-.753-.529l-6.347-.309c-1.136-4.08-4.326-5.43-8.15-5.106 0 0 .032-2.913.163-4.823 1.412-.51 8.71-2.698 14.858 4.019a.669.669 0 0 0 1.023-.025.733.733 0 0 0-.01-.928z"/></g></g></svg>