<svg xmlns="http://www.w3.org/2000/svg" width="85" height="43" viewBox="0 0 85 43"><g><g><path fill="#2f2f2f" d="M44.473 19.568c-1.608 4.866-6.114 3.52-6.209-.398-.705 3.26-2.891 7.107-6.747 5.857C27.498 23.787 22.844 2.364-.003-.008c3.696 1.146 11.32 6.661 5.32 16.418 11.012-2.668 8.669 10.325 5.963 9.671 6.779-1.322 11.051 1.015 11.489 9.89 4.297-4.29 13.518-6.395 14.076 7.02.725-6.593 11.69-11.346 12.808-1.61 2.663-6.425 12.155-7.696 15.835-2.548-1.608-5.286 4.092-11.66 9.513-9.52-1.914-5.57 3.534-12.565 10.002-13.868-13.324-5.742-25.609 5.231-33.425 9.9-7.103 4.248-6.268.015-7.105-5.777z"/></g></g></svg>