<svg xmlns="http://www.w3.org/2000/svg" width="60" height="61" viewBox="0 0 60 61"><g><g><path fill="#2f2f2f" d="M59.5 32.025c-.422-.14-1.553-.588-1.864-1.024-.05-.07-.126-.219-.224-.408-.571-1.11-1.91-3.708-4.616-3.708-.425 0-.87.065-1.325.195-2.543.728-3.763 2.382-4.654 3.59-.513.695-.918 1.244-1.375 1.33a2.143 2.143 0 0 1-.4.04c-.436 0-.68-.162-.725-.482-.172-1.202-.133-2.702-.091-4.29.068-2.626.146-5.603-.745-7.939-1.452-3.808-4.693-6.876-7.298-9.34-.65-.616-1.265-1.198-1.792-1.733-.203-.245-.413-.468-.617-.684-.295-.313-.574-.609-.778-.92-.874-1.337-1.487-2.852-2.016-4.284l-.149-.474a2.192 2.192 0 0 0-.266-.596C30.277.622 29.937 0 29.413 0a.71.71 0 0 0-.249.046c-.9.334-1.099 2.166-1.273 3.783-.09.83-.175 1.614-.34 2-.213.497-.543.791-.893 1.103-.414.368-.841.749-1.041 1.467-.2.718 0 1.13.194 1.53.163.336.318.654.234 1.183-.088.555-.361.856-.65 1.174-.309.339-.628.689-.682 1.33-.057.662.299 1.092.642 1.508.3.364.584.707.577 1.196-.006.414-.256.62-.573.882-.416.342-.933.767-.763 1.792.112.677.568 1.031.97 1.343.387.3.624.501.607.843-.013.26-.095.538-.182.833-.206.702-.44 1.498.166 2.37.218.314.945.945 1.752 1.59-2.216-.995-5.508-2.251-8.95-2.781-5.644-.868-11.12-3.016-14.06-4.17-1.386-.542-2.008-.782-2.254-.782-.159 0-.211.095-.226.137-.059.159.081.308.418.583l.907.737c1.216.988 2.17 1.764 2.575 2.154a14.972 14.972 0 0 1-.85-.339c-.194-.082-.35-.05-.436.074a.388.388 0 0 0-.061.229c0 1.052 3.09 6.225 7.358 11.217 3.081 3.602 9 9.646 14.027 9.646.3 0 .595-.022.882-.065-2 2.028-9.265 7.372-15.708 9.993C3.746 55.775.232 57.403-.014 58.675c-.056.288.046.558.303.802.343.325.662.476 1.006.476.242 0 .465-.076.68-.15.22-.075.448-.153.706-.153.288 0 .587.099.914.302.817.507 1.797 1.047 3.105 1.047 1.364 0 2.868-.584 4.598-1.787.325-.225.619-.326.955-.326.189 0 .375.031.571.064.214.035.436.072.68.072.558 0 1.088-.203 1.669-.64 4.285-3.22 8.958-3.823 13.905-4.461 5.836-.753 11.87-1.532 18.36-6.426 5.524-4.164 6.614-7.74 7.335-10.107.076-.25.148-.484.22-.704.723-2.196 1.146-2.71 1.676-2.887.35-.119 1.22-.463 1.986-.767.54-.213 1.006-.398 1.135-.441.19-.065.213-.178.21-.241-.005-.064-.013-.214-.501-.323z"/></g></g></svg>