<svg xmlns="http://www.w3.org/2000/svg" width="54" height="63" viewBox="0 0 54 63"><g><g><path fill="#2f2f2f" d="M52.444 47.513a1.174 1.174 0 0 1-.057.048c.104.044.186.102.183.228-.003.157-.144.205-.219.23-.054.019-.139.047-.244.1a1.6 1.6 0 0 1-.312.118 1.85 1.85 0 0 1-1.53-.269c-.046-.033-.057-.03-.074-.025-.04.01-.1.044-.169.082-.043.022-.089.047-.14.072-.336.166-.976.197-1.544.088a1.578 1.578 0 0 0-.716.03c-.146.038-.269.09-.359.13-.312.143-.478.11-1.052-.037-.373-.097-.71-.095-1.1-.093-.164 0-.338.002-.528-.005a1.213 1.213 0 0 0-.276.064 4.071 4.071 0 0 1-.173.05c-.39.104-.95.142-1.296-.728-.786-1.997-2.663-6.16-3.35-7.25-.323-.088-.561-.181-.792-.27a7.772 7.772 0 0 0-.65-.228c2.717 12.488 2.463 14.23 2.006 17.372-.416 2.85-1.38 4.615-2.713 4.969-.493.13-1.022.062-1.574-.203-.345.504-.769.825-1.263.956-1.336.355-3.06-.696-4.855-2.96-1.979-2.494-3.077-3.88-7.018-16.04-.18.188-.312.35-.45.52-.154.191-.313.389-.547.626-.048 1.305.465 5.622.77 7.607.163 1.056-.201 1.337-.623 1.552-.047.024-.094.048-.138.076-.468.29-.875.692-1.233 1.047l-.15.148c-.405.4-.539.525-.89.559-.098.009-.228.025-.374.063a1.573 1.573 0 0 0-.635.332c-.439.38-1.014.67-1.378.695-.059.004-.112.005-.162.007-.077.003-.144.004-.183.015-.017.005-.029.008-.051.058-.222.486-.667.86-1.191.999-.109.029-.218.046-.325.052-.118.006-.205.024-.262.035-.077.016-.223.044-.305-.09-.067-.107-.025-.198.04-.288a9.891 9.891 0 0 1-.071-.013.679.679 0 0 0-.237-.02c-.013.004-.028.01-.047.037-.086.125-.166.246-.24.357-.312.473-.391.585-.517.618a.237.237 0 0 1-.222-.062c-.108-.115-.122-.187.238-1.232.197-.578.71-.825 1.105-.93.267-.07.534-.088.68-.072a1.17 1.17 0 0 0 .339-.053c.317-.085.553-.209.595-.263.16-.205.815-.67 1.177-.766.053-.014.1-.02.144-.02a.707.707 0 0 0 .175-.032c.38-.101.83-.337.924-.486.087-.137.302-.278.705-.537.51-.327 1.281-.822 1.377-1.195.177-2.453-.075-4.187-.297-5.718-.156-1.075-.29-2.003-.247-2.99.004-.068-.015-.098-.052-.157-.237-.376-.246-.617 1.959-2.742-.336-.958-1.09-3.314-1.415-4.52-.29-1.076-.52-2.834-.584-3.352-1.526-.36-3.039-.566-3.777-.667-.115-.015-.212-.029-.287-.04-.062.123-.167.478-.063.664.488.86 1.52 4.286 2.091 6.251.095.327.087.59-.023.783-.15.262-.511.33-.754.177-.417.45-.87.736-1.379.872-.31.081-.581.093-.8.103l-.05.002c-.375.016-.593.017-.698-.145-.463.096-.988.047-1.311.018a.204.204 0 0 0-.067.001.187.187 0 0 0-.034.037c-.072.089-.245.247-.59.224-.231-.016-.413-.002-.545.007-.171.012-.332.025-.402-.132-.07-.16.061-.281.14-.353a.692.692 0 0 1 .16-.108c-.312-.059-.913.07-1.318.38-.04.03-.058.053-.064.06a.249.249 0 0 1-.124.093h-.001a.212.212 0 0 1-.229-.083c-.046-.068-.04-.167.002-.238.01-.02.078-.145.17-.48.095-.35.244-.478.565-.538.07-.013.15-.028.247-.064.68-.254.908-.12 1.328.098l.134.068c.376-.181.985-.205 1.63-.217.566-.012 1.152-.023 1.657-.157.269-.071.487-.17.664-.301-.17-.903-.868-3.509-1.714-5.694-.242-.63.113-1.411.4-2.039.06-.132.116-.256.162-.368.062-.154.214-.26.465-.327.58-.154 1.706-.095 2.699-.043.569.03 1.154.061 1.45.035 0-.18-.008-.34-.015-.489-.027-.538-.05-.972.38-1.488-.224-.319-.288-.568-.359-.913l-.081-1.03c-1.854-.917-2.995-1.614-3.21-3.24-.193-1.45.605-5.471.904-6.817-.348-.088-.625-.144-.835-.186-.383-.077-.555-.112-.605-.27-1.964-.395-1.974-.486-1.998-.676l-.002-.023c-2.002-.602-2.1-.66-2.129-.837-1.75-.68-1.935-.757-1.948-.908-.708-.347-1.273-.536-1.622-.653-.372-.125-.536-.18-.555-.35a27.817 27.817 0 0 0-1.567-.58c-.368-.126-.48-.163-.504-.325a.231.231 0 0 1-.002-.023c-.957-.48-1.521-.638-1.801-.717-.163-.045-.281-.078-.334-.174-1.28-.146-1.43-.239-1.476-.393-.398-.124-.932-.238-1.33-.232-.414.008-.639-.093-.668-.299-.01-.064-.02-.29.387-.366.331-.062.664-.045 1.673.218a.283.283 0 0 1 .105-.052c.26-.07.966.182 1.456.398a.236.236 0 0 1 .082-.044c.234-.062.724.22.923.345.105.063.199.125.288.183.26.17.488.318.937.495a.236.236 0 0 1 .062-.029c.225-.06.636.19.796.33.003.003.345.298 1.225.594a.263.263 0 0 1 .095-.054c.22-.058.555.19.685.337.154.171.31.242.62.383.186.085.43.196.75.366.219-.111.548.152.676.295.108.121.476.271.903.446.11.044.229.092.353.144a.262.262 0 0 1 .122-.072c.225-.06.566.167.728.324.202.195.47.296 1.184.565l.12.045c.13-.14.404-.114.62.073.15.132.71.38 1.317.589a.264.264 0 0 1 .147-.098c.235-.062.653.193.823.305.058.04.145.08.247.123-.463-1.138-1.395-2.748-1.804-3.306-.184-.146-.427-.267-.623-.366a2.456 2.456 0 0 1-.347-.195c-.205-.156-.332-.265-.317-.412a5.866 5.866 0 0 0-.284-.115c-.186-.07-.333-.127-.333-.3 0-.052.015-.095.04-.131a1.051 1.051 0 0 1-.263-.516c-.083-.493.19-1.045.201-1.068a.21.21 0 0 1 .243-.11.21.21 0 0 1 .156.216c0 .003-.015.307.163.66a.265.265 0 0 1 .102-.05c.198-.053.352.09.622.487a.259.259 0 0 1 .1-.053c.199-.052.308.109.458.33.04.06.087.13.142.206.199.277.308.339.405.394.154.088.267.17.413.48.744.862 1.582 2.874 1.954 4.067a.836.836 0 0 1 .089.147c.03-.03.07-.05.114-.062.2-.053.593.093.886.226.185.084.505.231.91.307a.27.27 0 0 1 .124-.08c.168-.045.48.046 1.684.504a.26.26 0 0 1 .094-.052c.255-.068.77.282.87.354.366.257.648.273.959.218.263-.097.499-.25.685-.654.051-.112.32-.67.574-.738a.248.248 0 0 1 .107-.001c.825-1.006 1.04-1.228 1.206-1.272a.273.273 0 0 1 .147.009c.31-.265.514-.549.62-.697.168-.233.456-.598.669-.654a.272.272 0 0 1 .132-.004.5.5 0 0 1-.002-.044c-.004-.011-.009-.021-.011-.033-.281-1.172-.592-3.424-.377-4.577-.03-.34.026-.467.115-.62.057-.096.12-.204.153-.542.01-.096.015-.18.02-.253.017-.254.03-.455.228-.507a.256.256 0 0 1 .114-.005c.032-.476.094-.678.293-.73a.262.262 0 0 1 .116-.007c-.025-.394-.19-.65-.193-.655a.208.208 0 0 1 .028-.262.21.21 0 0 1 .264-.026c.022.015.535.359.712.824.074.201.069.404.034.58a.22.22 0 0 1 .099.093c.087.15-.012.27-.137.424-.051.062-.115.14-.188.24.088.12.033.278-.066.514-.039.093-.11.202-.202.34-.12.184-.27.41-.356.627-.073.704-.067 2.59.107 3.788.08-.103.147-.197.182-.268.09-.18.323-.61.56-.672a.266.266 0 0 1 .175.013c.42-.483.78-.976.845-1.164.09-.268.314-.425.5-.37l.07-.085c.49-.595.673-.818.751-1.09.052-.182.235-.578.468-.64a.292.292 0 0 1 .138.006l.232-.299c.284-.365.53-.68.564-.84.038-.187.194-.575.434-.59.193-.308.35-.525.47-.692.196-.274.295-.411.34-.635.045-.219.226-.69.532-.632.608-.687.762-1.118.763-1.122.068-.2.298-.62.522-.679a.241.241 0 0 1 .068-.005c.304-.38.422-.615.568-.904.046-.092.095-.187.15-.291.11-.206.392-.694.627-.756a.255.255 0 0 1 .093-.004c.315-.429.8-.996 1.06-1.065a.29.29 0 0 1 .117-.006c.742-.729 1.022-.909 1.342-1.02.375-.132.493.066.519.126.078.193-.066.391-.429.591-.352.194-.755.556-1.034.86.036.158-.048.31-1.08 1.07.003.11-.083.197-.202.317-.203.206-.613.623-1.2 1.514l.01.021c.06.152-.018.24-.273.53-.208.236-.544.618-1.065 1.279.071.157-.044.287-.304.58-.243.275-.637.719-1.075 1.369.064.136-.06.297-1.231 1.751.064.168.01.267-1.421 1.78l.01.02c.075.177.111.261-1.39 1.577.036.16-.096.276-.388.532-.161.14-.373.326-.63.575.936 1.017 3.652 4.104 4.218 5.457.632 1.517-.004 2.686-1.148 4.396l.437.91c.123.353.195.602.162.992.634.235.834.624 1.083 1.106.067.13.14.271.228.424.277-.128.765-.441 1.238-.746.834-.538 1.78-1.148 2.36-1.301.25-.067.437-.05.569.052.097.076.21.157.33.242.562.401 1.262.9 1.368 1.565.37 2.317 1.084 4.936 1.39 5.794.548.114 1.342-.283 2.063-.69.561-.318 1.103-.609 1.525-.626l.084-.123c.27-.39.399-.608 1.126-.702.058-.008.109-.02.153-.031l.18-.052c.257-.068.445-.002.672.237.243.256.361.335.378.347.07.042.12.124.113.204a.209.209 0 0 1-.154.181h-.001a.246.246 0 0 1-.162-.021.337.337 0 0 0-.085-.024c-.504-.085-1.096.08-1.345.278a.666.666 0 0 1 .192.02c.104.027.276.072.29.246.013.172-.136.237-.293.305a3.514 3.514 0 0 0-.485.246c-.297.183-.52.12-.626.076-.016-.007-.038-.017-.046-.017a.229.229 0 0 0-.06.03c-.249.162-.705.462-1.167.592-.016.195-.21.295-.55.454-.749.352-1.452.423-2.163.24-.133.258-.485.384-.75.229-.193-.113-.332-.337-.413-.666-.495-1.986-1.329-5.464-1.34-6.452-.001-.206-.255-.454-.393-.537l-.227.175c-.59.452-1.796 1.38-2.928 2.443.203.48.888 2.118 1.179 3.195.31 1.152.853 3.56 1.055 4.614 2.98.749 3.093.963 3.077 1.406-.002.069-.004.104.033.16.534.83.914 1.758 1.354 2.832.58 1.415 1.237 3.019 2.448 4.882.191.036.841.043 1.325.05 1.07.01 1.559.025 1.741.118.157.081.661.062 1.04-.038a.781.781 0 0 0 .17-.06.588.588 0 0 1 .14-.056c.367-.098 1.154-.024 1.403.075.062.025.323.016.633-.066.182-.048.294-.1.335-.129a2.1 2.1 0 0 1 .635-.279c.391-.104.956-.144 1.42.256.837.72.865.795.829.945a.236.236 0 0 1-.161.164c-.126.034-.253-.025-.767-.278l-.383-.187c-.03-.014-.045-.012-.059-.008-.052.013-.124.075-.195.138zM27.333 16.594c.057.174-.081.27-.256.39-.203.14-.55.38-.838.764a.241.241 0 0 1-.032.195c-.076.112-.145.27-.202.422.202.05.281.132.357.28.044.085.104.202.402.398.631.417.872.623.985 1.549.568.049 2.193.319 3.5 1.817.055-.115.105-.224.151-.326.292-.634.484-1.053 1.074-1.336a.928.928 0 0 0 .162-.09c-.02-.059-.271-.405-.62-.886l-.087-.12a40.103 40.103 0 0 0-2.422-3.013c-.402-.46-.707-.812-.92-1.116-.082.09-.218.199-.416.358-.219.177-.505.407-.84.706l.002.008zm-7.141 1.898l-.002-.01c-.442-.092-.805-.15-1.083-.194a4.402 4.402 0 0 1-.541-.104c-.033.375-.122.837-.233 1.412a39.48 39.48 0 0 0-.583 3.82l-.015.147c-.06.588-.103 1.014-.06 1.1 0-.005.007-.01.02-.012.032-.01.097-.013.137-.017.654-.046 1.03.222 1.601.627l.294.207a5.287 5.287 0 0 1 2.117-3.308c-.368-.859-.263-1.155.064-1.81.169-.337.161-.467.157-.563a.467.467 0 0 1 .167-.42 2.127 2.127 0 0 0-.386-.265.244.244 0 0 1-.127-.153c-.444-.19-.864-.226-1.109-.247-.212-.018-.38-.032-.418-.21z"/></g></g></svg>