<?xml version="1.0" encoding="utf-8"?>
<!-- Generator: Adobe Illustrator 17.0.0, SVG Export Plug-In . SVG Version: 6.00 Build 0)  -->
<!DOCTYPE svg PUBLIC "-//W3C//DTD SVG 1.1//EN" "http://www.w3.org/Graphics/SVG/1.1/DTD/svg11.dtd">
<svg version="1.1" id="Shape_13_1_" xmlns="http://www.w3.org/2000/svg" xmlns:xlink="http://www.w3.org/1999/xlink" x="0px"
	 y="0px" width="79px" height="62px" viewBox="0 0 79 62" enable-background="new 0 0 79 62" xml:space="preserve">
<g id="Shape_13">
	<g>
		<path fill-rule="evenodd" clip-rule="evenodd" fill="#2F2F2F" d="M77.72,59.465h-1.45v-9.545c0-0.7-0.573-1.267-1.28-1.267h-1.45
			V6.673c0-0.7-0.573-1.267-1.28-1.267h-0.085V1.267c0-0.7-0.573-1.267-1.28-1.267h-13.65c-0.707,0-1.28,0.567-1.28,1.267v4.139
			H55.88c-0.707,0-1.28,0.567-1.28,1.267v41.981H51.7V13.43c0-2.935-2.411-5.322-5.375-5.322H46.24V8.024
			c0-2.934-2.411-5.322-5.375-5.322h-8.19c-1.639,0-3.109,0.732-4.095,1.881c-0.987-1.149-2.456-1.881-4.095-1.881h-8.19
			c-2.964,0-5.375,2.388-5.375,5.322v0.085h-0.085c-2.964,0-5.375,2.387-5.375,5.322v35.223H4.01c-0.707,0-1.28,0.567-1.28,1.267
			v9.545H1.28c-0.707,0-1.28,0.567-1.28,1.267C0,61.432,0.573,62,1.28,62H77.72c0.707,0,1.28-0.567,1.28-1.267
			C79,60.033,78.427,59.465,77.72,59.465z M58.525,2.534h11.091v2.872H58.525V2.534z M66.8,36.321c-0.707,0-1.28-0.567-1.28-1.267
			V31c0-0.7,0.573-1.267,1.28-1.267c0.707,0,1.28,0.567,1.28,1.267v4.054C68.08,35.754,67.507,36.321,66.8,36.321z M68.08,40.46
			v4.054c0,0.7-0.573,1.267-1.28,1.267c-0.707,0-1.28-0.567-1.28-1.267V40.46c0-0.7,0.573-1.267,1.28-1.267
			C67.507,39.193,68.08,39.76,68.08,40.46z M66.8,26.861c-0.707,0-1.28-0.567-1.28-1.267v-4.054c0-0.7,0.573-1.267,1.28-1.267
			c0.707,0,1.28,0.567,1.28,1.267v4.054C68.08,26.294,67.507,26.861,66.8,26.861z M66.8,17.4c-0.707,0-1.28-0.567-1.28-1.267v-4.054
			c0-0.7,0.573-1.267,1.28-1.267c0.707,0,1.28,0.567,1.28,1.267v4.054C68.08,16.833,67.507,17.4,66.8,17.4z M61.34,36.321
			c-0.707,0-1.28-0.567-1.28-1.267V31c0-0.7,0.573-1.267,1.28-1.267c0.707,0,1.28,0.567,1.28,1.267v4.054
			C62.62,35.754,62.047,36.321,61.34,36.321z M62.62,40.46v4.054c0,0.7-0.573,1.267-1.28,1.267c-0.707,0-1.28-0.567-1.28-1.267
			V40.46c0-0.7,0.573-1.267,1.28-1.267C62.047,39.193,62.62,39.76,62.62,40.46z M61.34,26.861c-0.707,0-1.28-0.567-1.28-1.267
			v-4.054c0-0.7,0.573-1.267,1.28-1.267c0.707,0,1.28,0.567,1.28,1.267v4.054C62.62,26.294,62.047,26.861,61.34,26.861z M61.34,17.4
			c-0.707,0-1.28-0.567-1.28-1.267v-4.054c0-0.7,0.573-1.267,1.28-1.267c0.707,0,1.28,0.567,1.28,1.267v4.054
			C62.62,16.833,62.047,17.4,61.34,17.4z M46.325,10.643c1.553,0,2.815,1.251,2.815,2.788v0.084H40.78V13.43
			c0-1.537,1.263-2.788,2.815-2.788H46.325z M29.86,8.024c0-1.537,1.263-2.787,2.815-2.787h8.19c1.552,0,2.815,1.25,2.815,2.787
			v0.085h-0.085c-2.964,0-5.375,2.387-5.375,5.322v27.114H35.32V13.43c0-2.935-2.411-5.322-5.375-5.322H29.86V8.024z M38.22,43.079
			v5.575H35.32v-5.575H38.22z M29.945,10.643c1.553,0,2.815,1.251,2.815,2.788v0.084h-8.361V13.43c0-1.537,1.263-2.788,2.815-2.788
			H29.945z M13.479,8.024c0-1.537,1.263-2.787,2.815-2.787h8.19c1.552,0,2.815,1.25,2.815,2.787v0.085h-0.085
			c-2.964,0-5.375,2.387-5.375,5.322v27.114H18.94V13.43c0-2.935-2.411-5.322-5.375-5.322h-0.085V8.024z M21.84,43.079v5.575H18.94
			v-5.575H21.84z M8.019,13.43c0-1.537,1.263-2.788,2.815-2.788h2.73c1.553,0,2.815,1.251,2.815,2.788v0.084H8.019V13.43z
			 M73.711,59.465H70.81v-4.139c0-0.7-0.573-1.267-1.28-1.267s-1.28,0.567-1.28,1.267v4.139H65.35v-4.139
			c0-0.7-0.573-1.267-1.28-1.267c-0.707,0-1.28,0.567-1.28,1.267v4.139H59.89v-4.139c0-0.7-0.573-1.267-1.28-1.267
			s-1.28,0.567-1.28,1.267v4.139H54.43v-4.139c0-0.7-0.573-1.267-1.28-1.267c-0.707,0-1.28,0.567-1.28,1.267v4.139H48.97v-4.139
			c0-0.7-0.573-1.267-1.28-1.267c-0.707,0-1.28,0.567-1.28,1.267v4.139H43.51v-4.139c0-0.7-0.573-1.267-1.28-1.267
			c-0.707,0-1.28,0.567-1.28,1.267v4.139H38.05v-4.139c0-0.7-0.573-1.267-1.28-1.267c-0.707,0-1.28,0.567-1.28,1.267v4.139H32.59
			v-4.139c0-0.7-0.573-1.267-1.28-1.267s-1.28,0.567-1.28,1.267v4.139H27.13v-4.139c0-0.7-0.573-1.267-1.28-1.267
			c-0.707,0-1.28,0.567-1.28,1.267v4.139h-2.901v-4.139c0-0.7-0.573-1.267-1.28-1.267c-0.707,0-1.28,0.567-1.28,1.267v4.139h-2.901
			v-4.139c0-0.7-0.573-1.267-1.28-1.267c-0.707,0-1.28,0.567-1.28,1.267v4.139h-2.901v-4.139c0-0.7-0.573-1.267-1.28-1.267
			c-0.707,0-1.28,0.567-1.28,1.267v4.139H5.289v-8.278h68.421V59.465z"/>
	</g>
</g>
</svg>
