<svg xmlns="http://www.w3.org/2000/svg" width="71" height="77" viewBox="0 0 71 77"><g><g><path fill="#fff" d="M70.798 13.676a5.59 5.59 0 0 1-1.079 1.337c-.306 5.19-3.425 9.646-7.836 11.853a13.865 13.865 0 0 1 7.605 12.408v16.34c0 .507-.256.979-.68 1.254L54.57 66.133a1.488 1.488 0 0 1-2.062-.44 1.497 1.497 0 0 1 .44-2.068l13.559-8.823V39.274c0-3.772-2.014-7.298-5.162-9.277-.85 2.724-3.173 4.737-5.823 4.737h-.223c-2.645 0-4.971-1.878-5.874-4.442-.63.438-1.213.943-1.746 1.511a1.488 1.488 0 0 1-2.107.065 1.498 1.498 0 0 1-.065-2.113 13.915 13.915 0 0 1 3.82-2.881 14.14 14.14 0 0 1-7.151-8.284 5.498 5.498 0 0 1-.874-.366 1.494 1.494 0 0 1-.792-1.17 15.5 15.5 0 0 1 1.815-9.041c.19-.334 1.733-2.947 4.069-4.777A15.226 15.226 0 0 1 55.827 0c2.327 0 4.564.508 6.649 1.511l.05.022c2.16.962 3.775 2.48 4.75 3.584l.012.013a15.415 15.415 0 0 1 3.687 7.528c.064.35.001.71-.177 1.018zm-12.1 14.328a14.128 14.128 0 0 1-6.693-.123c.002.025.003.051.003.077 0 2.052 1.507 3.786 3.291 3.786h.223c1.626 0 3.06-1.718 3.177-3.74zm7.833-11.564a5.483 5.483 0 0 1-.55.027c-2.53 0-4.671-1.701-5.346-4.023-2.616 1.22-5.537 1.858-8.57 1.858a21.07 21.07 0 0 1-2.694-.173 5.593 5.593 0 0 1-3.988 4.518 11.147 11.147 0 0 0 10.228 6.71c5.358 0 9.869-3.838 10.92-8.917zm1.387-3.845a12.432 12.432 0 0 0-2.891-5.516c-.781-.88-2.054-2.075-3.712-2.814a4.737 4.737 0 0 1-.128-.058 12.271 12.271 0 0 0-5.36-1.217c-2.776 0-5.4.898-7.591 2.597l-.01.008C46.28 7.12 44.933 9.46 44.92 9.484l-.011.02a12.497 12.497 0 0 0-1.495 6.323l.1.015.066.009a2.591 2.591 0 0 0 2.874-2.575v-.908c0-.452.204-.88.555-1.163a1.487 1.487 0 0 1 1.252-.298c1.236.269 2.516.405 3.805.405 3.295 0 6.424-.873 9.047-2.524.459-.29 1.039-.306 1.514-.042.475.263.77.764.77 1.308v.832c0 1.43 1.159 2.592 2.584 2.592a2.59 2.59 0 0 0 1.937-.883zM49.744 62.948l.026 5.49c.003.515-.26.995-.694 1.27l-11.144 7.06a1.489 1.489 0 0 1-1.597-.002l-11.117-7.097c-.43-.275-.69-.75-.69-1.262v-5.452c0-4.76 2.648-9.063 6.828-11.23a11.473 11.473 0 0 1-4.373-15.141 1.52 1.52 0 0 1 .097-.184c1.935-3.581 5.717-6.018 10.056-6.018 4.338 0 8.119 2.436 10.054 6.015.037.06.07.123.1.19a11.472 11.472 0 0 1-4.376 15.14 12.673 12.673 0 0 1 6.83 11.22zM30.665 36.403c2.009.578 4.212.878 6.471.878 2.259 0 4.461-.3 6.47-.878a8.423 8.423 0 0 0-6.47-3.031 8.423 8.423 0 0 0-6.47 3.031zm6.47 13.91c4.658 0 8.447-3.8 8.447-8.47 0-.972-.163-1.906-.465-2.775-2.46.79-5.19 1.203-7.98 1.203-2.793 0-5.523-.413-7.983-1.203a8.453 8.453 0 0 0-.465 2.774c0 4.67 3.79 8.47 8.447 8.47zm0 2.99c-.947 0-1.868-.117-2.75-.336.171 1.39 1.488 2.395 2.673 2.395h.181c1.12 0 2.357-.956 2.543-2.37-.85.203-1.736.31-2.646.31zm9.65 14.32l-.023-4.66a9.694 9.694 0 0 0-4.425-8.119c-.86 2.04-2.848 3.508-5.098 3.508h-.181c-2.084 0-4.28-1.323-5.212-3.454a9.638 9.638 0 0 0-4.337 8.057v4.632l9.63 6.148zM24.377 34.087a10.805 10.805 0 0 0-.264-.16c-.8 2.886-3.071 5.47-5.917 5.47h-.222c-2.62 0-4.99-2.018-5.912-4.704a10.873 10.873 0 0 0-4.297 8.685v11.425L20.61 63.16a1.497 1.497 0 0 1-.813 2.749 1.48 1.48 0 0 1-.81-.242l-13.524-8.8a1.496 1.496 0 0 1-.68-1.253V43.378c0-5.2 2.845-9.897 7.445-12.323a14.068 14.068 0 0 1-5.333-4.264 5.155 5.155 0 0 1-1.7.286C2.332 27.077 0 24.74 0 21.867v-3.715c0-4.86 1.876-9.412 5.283-12.82C8.606 2.01 13.004.119 17.666.006c.373-.01.751-.005 1.158.01h.002a17.996 17.996 0 0 1 12.313 5.543 18.088 18.088 0 0 1 5.065 12.594v3.715c0 2.873-2.33 5.21-5.195 5.21-.595 0-1.167-.1-1.7-.286a14.087 14.087 0 0 1-4.765 3.99c.483.227.954.484 1.408.767.699.436.913 1.358.479 2.059a1.489 1.489 0 0 1-2.054.48zm-14.21-22.105h7.242c.292-1 .481-2.03.563-3.075.032-.413.234-.794.557-1.052.323-.258.738-.37 1.147-.31 5.198.77 9.118 5.33 9.118 10.607v3.715c0 .708.333 1.34.85 1.747.044.03.086.06.126.093.354.24.78.38 1.238.38a2.22 2.22 0 0 0 2.214-2.22v-3.715c0-8.172-6.375-14.826-14.513-15.15a15.004 15.004 0 0 0-.972-.008c-8.274.2-14.756 6.859-14.756 15.158v3.715c0 1.225.993 2.22 2.214 2.22.458 0 .885-.14 1.238-.38.04-.033.083-.064.127-.093.517-.406.85-1.038.85-1.747v-3.715c0-1.913.509-3.792 1.473-5.433a1.49 1.49 0 0 1 1.284-.737zm11.27 19.95c-1.077.26-2.194.394-3.335.394-1.205 0-2.384-.15-3.516-.44.032.123.048.25.048.378 0 2.09 1.655 4.142 3.34 4.142h.222c1.499 0 3.14-2.3 3.24-4.474zm5.453-6.892a5.193 5.193 0 0 1-1.077-3.173v-3.715c0-3.284-2.104-6.183-5.089-7.272a18.06 18.06 0 0 1-.84 3.115 1.491 1.491 0 0 1-1.4.977h-7.413a7.755 7.755 0 0 0-.68 3.18v3.715a5.194 5.194 0 0 1-1.077 3.173 11.079 11.079 0 0 0 8.788 4.296c3.475 0 6.681-1.586 8.788-4.296z"/></g></g></svg>