<svg xmlns="http://www.w3.org/2000/svg" width="45" height="57" viewBox="0 0 45 57"><g><g><path fill="#2f2f2f" d="M11.216 28.108a12.825 12.825 0 0 1-.896-.184c-.858-.212-1.704-.328-2.096.011a.283.283 0 0 0-.068.11.724.724 0 0 1-.204.236c-.84.641-1.14 1.987-1.587 3.19-.507 1.363-1.219 2.809-1.713 3.537-.465.684-.83.577-.942 1.122a.523.523 0 0 0-.01.148c.006.082-.065.153-.175.158-.677.027-1.213-.024-1.504.373a.605.605 0 0 1-.293.215c-.35.084-.833.26-1.284.829-.707.894-.387 2.045-.215 2.047.171.002-.054-.556.548-1.188.353-.368.88-.327 1.331-.527.1-.045.263-.106.371-.128a7.717 7.717 0 0 0 1.802-.618.486.486 0 0 1 .355-.008c.195.076.395.09.569.006.8-.387 1.447-2.979 1.813-4.326.408-1.507.642-2.52 1.306-3.307.071-.085.196-.084.289-.025a.715.715 0 0 0 .23.097c.586.137 1.5.023 2.408-.109.109-.016.2.06.203.171.044 1.584.09 3.144.032 4.35-.064 1.351-.047 3.091.124 4.884.01.11-.069.197-.179.194a16.363 16.363 0 0 1-1.848-.132c-.875-.122-1.73-.149-2.085.23-.043.046-.102.106-.138.203-.04.103-.086.268-.146.36-1.299 1.994-1.67 6.397-1.854 7.798-.19 1.44-.504 2.761-.823 3.583-.3.77-.647.872-.717 1.384a.536.536 0 0 0 .065.32c.05.099.02.181-.09.195-.713.086-1.284.053-1.558.486a.598.598 0 0 1-.278.236 2.213 2.213 0 0 0-1.223.918c-.641.943-.24 2.069-.07 2.059.171-.012-.094-.552.464-1.223.325-.394.854-.39 1.29-.623.097-.052.255-.125.361-.154.56-.152 1.515-.526 2.104-.973a.792.792 0 0 1 .353-.12.437.437 0 0 0 .331-.182c.71-1.028.496-2.966.707-4.345.325-2.121.877-6.169 1.646-7.978.043-.101.146-.144.233-.115.05.016.105.029.161.037.804.1 2.147-.31 3.288-.588a.18.18 0 0 1 .224.15c.09.586.197 1.166.328 1.727.082.35.236.58.35.711a.858.858 0 0 1 .18.333c.097.497.386 1.807.856 2.43.091.12.197.165.285.178.109.017.228.068.269.17.186.474.72 1.755 1.396 2.734.198.287.38.418.554.446.109.016.243.065.3.16.41.664 1.035 1.56 1.495 1.819.28.156.54.175.708.162.11-.008.242.043.3.136.572.91 1.06 1.458 1.797 1.396.11-.01.24.05.315.13.285.299.866.523 1.342.6.108.02.286.02.395 0 .476-.077 1.056-.3 1.342-.6a.422.422 0 0 1 .315-.13c.738.062 1.225-.485 1.796-1.396.059-.093.191-.144.3-.136.17.013.43-.006.71-.162.459-.26 1.084-1.155 1.493-1.82.058-.094.193-.143.3-.16.175-.028.357-.158.555-.445.677-.98 1.21-2.26 1.396-2.734.04-.102.16-.153.269-.17a.432.432 0 0 0 .285-.179c.47-.622.76-1.932.856-2.429a.854.854 0 0 1 .18-.333c.113-.131.267-.36.35-.71a22.9 22.9 0 0 0 .329-1.727.18.18 0 0 1 .223-.151c1.141.279 2.484.688 3.288.588a.887.887 0 0 0 .162-.037c.086-.03.188.014.232.115.77 1.809 1.32 5.857 1.646 7.978.211 1.379-.003 3.317.707 4.345a.437.437 0 0 0 .33.181c.11.012.266.055.354.122.59.446 1.544.82 2.104.972.105.03.264.102.362.154.435.234.964.229 1.289.623.558.671.293 1.213.463 1.223.172.01.573-1.116-.07-2.06-.409-.6-.88-.808-1.223-.917a.606.606 0 0 1-.277-.235c-.273-.434-.845-.4-1.56-.487-.108-.014-.139-.096-.09-.195a.536.536 0 0 0 .066-.32c-.069-.512-.416-.614-.716-1.384-.32-.822-.634-2.144-.823-3.583-.185-1.402-.556-5.804-1.854-7.798-.06-.092-.107-.257-.146-.36-.036-.097-.096-.157-.139-.203-.355-.379-1.21-.352-2.084-.23-.566.078-1.139.113-1.848.132a.172.172 0 0 1-.18-.194c.171-1.793.189-3.533.124-4.884-.057-1.206-.012-2.766.032-4.35a.174.174 0 0 1 .204-.17c.907.131 1.822.245 2.408.108a.721.721 0 0 0 .23-.097c.093-.06.217-.06.288.025.665.788.9 1.8 1.307 3.307.365 1.347 1.013 3.939 1.813 4.326.174.084.373.07.569-.006a.485.485 0 0 1 .354.008 7.72 7.72 0 0 0 1.802.618c.108.022.271.083.372.128.452.2.978.16 1.33.527.604.632.377 1.19.549 1.188.172-.002.492-1.153-.215-2.047-.45-.57-.935-.745-1.284-.829a.606.606 0 0 1-.294-.217c-.29-.396-.826-.346-1.503-.371-.11-.005-.181-.076-.176-.158a.546.546 0 0 0-.008-.149c-.113-.545-.478-.437-.943-1.121-.494-.728-1.206-2.175-1.713-3.536-.446-1.204-.748-2.55-1.586-3.191a.716.716 0 0 1-.205-.236.278.278 0 0 0-.067-.11c-.394-.339-1.239-.223-2.096-.011-.29.07-.584.13-.896.184-.109.019-.195-.056-.194-.167.008-.655.01-1.29-.007-1.88.058-.93.865-1.436.81-2.296-.049-.753-2.08-2.348-3.054-2.635-1.02-.3-1.275-.582-1.656-.906-.084-.07-.077-.172.018-.229.501-.3.933-.538 1.381-.746.802-.371 1.52-.916 1.7-1.403a.52.52 0 0 0 .014-.054c.008-.03.099-.037.205-.01a7.5 7.5 0 0 1 1.211.413c1.07.473 3.652 1.553 3.942 1.47.204-.058.36-.212.463-.409a.34.34 0 0 1 .279-.176c.807.003 1.83-.245 2.272-.418.52-.207 1.087-.238 1.546-.114.46.124.81.402.893.287.08-.116-.643-1.206-1.266-1.387a2.046 2.046 0 0 0-1.21.01.583.583 0 0 1-.361-.042c-.545-.248-1.08.256-1.907.605-.101.043-.21.011-.253-.058a.57.57 0 0 0-.091-.115c-.282-.268-.839-.082-1.602-.098-.88-.02-1.746-.259-2.468-.54-.648-.252-1.051-.463-2.015-.512-.11-.005-.276-.054-.382-.083-.203-.054-.432-.022-.671.152-.603.438-1.775 1.55-2.935 2.529a.374.374 0 0 1-.338.057c-.939-.344-1.625-.42-1.915-1.116-.266-.642-.651-.78-.705-.918a3.689 3.689 0 0 1-.186-1.413c.012-.202-.051-.338-.146-.425-.08-.074-.15-.186-.124-.292.99-3.913 3.96-7.463 4.286-7.971.167-.263.23-.536.252-.714a.38.38 0 0 1 .196-.278c.153-.07.362-.17.46-.242.397-.289 1.021-1.225 1.304-1.666.127-.2.345-.41.366-.629.01-.11.052-.195.153-.24.232-.106.535-.361.713-.524.614-.568 1.664-1.396 2.058-1.982.392-.58-.156-1.127-.752-.893-.493.193-1.976 1.74-2.287 2.079-.201.221-.306.57-.355.787-.025.108-.124.172-.234.17a.706.706 0 0 0-.4.114c-.279.186-1.224 1.427-1.456 1.783-.196.299-.297.468-.294.79a.292.292 0 0 1-.178.259c-.74.324-1.503 1.737-2.287 3.352-.94 1.933-1.9 4.203-2.13 6.057l-.01.104c-.006.056-.066.189-.175.208-.113.021-.22-.072-.253-.363-.05-.423-.659-.87-1.483-.848l-.03.004c-.01 0-.02-.003-.031-.004-.824-.023-1.433.425-1.482.848-.033.29-.14.384-.254.363-.108-.02-.169-.152-.174-.208l-.01-.104c-.231-1.853-1.19-4.124-2.13-6.057-.784-1.615-1.547-3.029-2.288-3.352a.292.292 0 0 1-.177-.258c.003-.323-.098-.492-.294-.791-.233-.356-1.177-1.597-1.456-1.783a.71.71 0 0 0-.4-.113c-.11 0-.21-.063-.234-.17-.049-.218-.154-.567-.355-.788-.31-.339-1.794-1.886-2.288-2.079-.595-.234-1.143.313-.752.893.394.586 1.445 1.414 2.06 1.982.176.163.48.418.712.524.1.045.143.13.153.24.02.22.238.429.366.629.283.441.906 1.377 1.303 1.666.099.072.308.173.46.242.101.045.182.169.196.278.023.178.085.451.253.714.326.508 3.295 4.058 4.285 7.97.027.108-.043.22-.124.293-.094.088-.157.224-.146.425.036.6-.081 1.129-.186 1.413-.053.138-.439.276-.705.918-.29.695-.976.772-1.914 1.116a.375.375 0 0 1-.339-.057c-1.16-.978-2.331-2.091-2.934-2.53-.24-.173-.47-.205-.671-.15-.107.028-.273.077-.383.082-.963.049-1.367.26-2.014.513-.722.28-1.588.52-2.468.54-.764.015-1.32-.17-1.602.097a.613.613 0 0 0-.092.115c-.043.069-.151.1-.252.058-.828-.349-1.362-.853-1.907-.606a.591.591 0 0 1-.36.043c-.31-.09-.702-.16-1.211-.011-.623.18-1.346 1.272-1.266 1.387.082.116.433-.162.892-.287.46-.123 1.027-.093 1.547.114.441.173 1.464.422 2.272.419.11 0 .227.079.279.176.104.197.258.35.463.409.29.083 2.872-.998 3.942-1.47.446-.198.869-.328 1.21-.413.107-.027.198-.02.205.01l.015.054c.18.487.898 1.032 1.7 1.403.447.208.88.446 1.381.746.094.057.101.158.017.23-.38.323-.635.604-1.655.905-.973.287-3.006 1.882-3.054 2.635-.055.86.752 1.366.81 2.296-.017.59-.016 1.225-.007 1.88.007.11-.08.186-.188.167z"/></g></g></svg>