<svg xmlns="http://www.w3.org/2000/svg" width="71" height="86" viewBox="0 0 71 86"><g><g><path fill="#fff" d="M70.986 75.806a1.48 1.48 0 0 1-1.652 1.286L58.76 75.768l-2.611 9.156A1.48 1.48 0 0 1 54.727 86c-.458 0-.89-.214-1.169-.576l-9.445-12.175a13.662 13.662 0 0 1-8.615 3.855 13.662 13.662 0 0 1-8.614-3.855l-9.446 12.18a1.478 1.478 0 0 1-2.59-.503l-2.61-9.158L1.662 77.09a1.476 1.476 0 0 1-1.092-.3 1.485 1.485 0 0 1-.26-2.081l9.008-11.6a13.03 13.03 0 0 1-7.128-5.283C.07 54.16 1.035 49.68 1.957 45.348a34.17 34.17 0 0 0 1.001-6.797 34.167 34.167 0 0 0-1-6.797c-.927-4.329-1.886-8.812.234-12.484 2.195-3.802 6.614-5.21 10.889-6.567a31.643 31.643 0 0 0 6.147-2.409 30.07 30.07 0 0 0 4.926-4.004C27.326 3.34 30.922 0 35.498 0c4.577 0 8.172 3.34 11.343 6.291a30.045 30.045 0 0 0 4.927 4.003 31.632 31.632 0 0 0 6.149 2.415c4.275 1.358 8.694 2.765 10.89 6.566 2.119 3.667 1.154 8.147.233 12.48a34.164 34.164 0 0 0-1.002 6.796c.105 2.292.441 4.567 1.002 6.791.927 4.33 1.886 8.812-.234 12.485a13.028 13.028 0 0 1-7.12 5.284l9 11.6c.241.31.349.705.3 1.095zm-66.14-2.102l8.282-1.038c.723-.09 1.405.361 1.605 1.064l2.158 7.57 7.773-10.017-.509-.471a30.048 30.048 0 0 0-4.927-4.004 31.625 31.625 0 0 0-6.141-2.408l-.818-.262zm61.4-17.36c1.547-2.684.748-6.422-.1-10.379a36.376 36.376 0 0 1-1.066-7.414c.1-2.501.458-4.986 1.068-7.414.848-3.958 1.646-7.696.1-10.379-1.622-2.808-5.315-3.982-9.224-5.227a34.22 34.22 0 0 1-6.735-2.669 32.612 32.612 0 0 1-5.456-4.399c-3.044-2.829-5.918-5.498-9.335-5.498-3.416 0-6.29 2.67-9.336 5.498a32.604 32.604 0 0 1-5.455 4.4 34.238 34.238 0 0 1-6.733 2.668c-3.909 1.245-7.596 2.42-9.223 5.227-1.547 2.684-.749 6.422.099 10.38.61 2.427.967 4.912 1.066 7.413a36.388 36.388 0 0 1-1.068 7.414c-.847 3.959-1.646 7.697-.099 10.38 1.621 2.808 5.315 3.982 9.224 5.226a34.25 34.25 0 0 1 6.734 2.669 32.614 32.614 0 0 1 5.457 4.4c3.044 2.828 5.918 5.497 9.334 5.497 3.417 0 6.29-2.669 9.336-5.498a32.6 32.6 0 0 1 5.455-4.4 34.27 34.27 0 0 1 6.733-2.668c3.91-1.244 7.597-2.418 9.224-5.227zm-7.513 7.794l-.818.262a31.61 31.61 0 0 0-6.147 2.408 30.071 30.071 0 0 0-4.925 4.005l-.509.472L54.105 81.3l2.166-7.57c.2-.703.881-1.154 1.605-1.064l8.283 1.038zM35.498 65.24c-14.704 0-26.624-11.95-26.624-26.69 0-14.74 11.92-26.69 26.624-26.69 14.697.018 26.607 11.957 26.624 26.69 0 14.74-11.92 26.69-26.624 26.69zm0-50.414c-13.07 0-23.665 10.622-23.665 23.724 0 13.103 10.595 23.724 23.665 23.724 13.064-.015 23.65-10.628 23.666-23.724 0-13.102-10.596-23.724-23.666-23.724zm16.415 21.674l-7.33 5.338 2.8 8.64a2.926 2.926 0 0 1-1.074 3.316 2.91 2.91 0 0 1-3.479 0l-7.332-5.338-7.335 5.337a2.954 2.954 0 0 1-2.653.421 2.967 2.967 0 0 1-1.9-3.737l2.8-8.64-7.33-5.337a2.967 2.967 0 0 1 1.743-5.364h9.062l2.803-8.64a2.957 2.957 0 0 1 5.62 0l2.81 8.64h9.056c.945 0 1.834.455 2.39 1.22a2.97 2.97 0 0 1-.65 4.144zm-11.875-2.4a1.48 1.48 0 0 1-1.407-1.024l-3.133-9.663-3.132 9.665a1.48 1.48 0 0 1-1.407 1.024H20.823l8.2 5.972c.518.378.735 1.047.537 1.658l-3.132 9.665 8.202-5.973a1.477 1.477 0 0 1 1.738 0l8.202 5.973-3.133-9.665a1.485 1.485 0 0 1 .537-1.66l8.2-5.97z"/></g></g></svg>