<svg xmlns="http://www.w3.org/2000/svg" width="80" height="43" viewBox="0 0 80 43"><g><g><path fill="#2f2f2f" d="M.006 40.768a.197.197 0 0 1 .13-.208c.129-.044.395-.034.748-.012.2.012.418.026.629.026.294 0 .51-.027.657-.083.38-.146 1.58-.766 3.099-1.551l.89-.461c.548-.283 1.345-.627 2.266-1.026 2.244-.97 5.316-2.298 6.364-3.498 1.53-1.755 8.501-9.331 10.946-11.407.395-1.128.67-3.577.935-5.945.066-.587.13-1.164.196-1.71-1.682.313-3.886.498-5.947.498-1.174 0-3.95-.066-4.371-.68a.579.579 0 0 1-.058-.558c.323-.84 2.35-1.768 4.32-2.32-.32-.03-.668-.045-1.052-.045-.937 0-1.93.088-2.807.167-.727.064-1.415.125-1.953.125-.552 0-1.2-.054-1.321-.482-.26-.913.345-1.536.83-2.037.292-.3.544-.561.485-.765-.049-.173-.018-.354.092-.542.471-.795 2.495-1.713 5.036-2.281 2.044-.458 4.833-1.083 8.243-1.12.472-2.773.844-4.187 1.203-4.577.153-.167.479-.267.87-.267.416 0 .928.119 1.155.44.187-.176.458-.35.793-.35.395 0 .78.243 1.143.722.13.172.427.844.985 2.117.352.804.75 1.712 1.162 2.607 1.065.185 1.892.361 2.442.489l.006-.707c.014-1.926.027-2.862.177-3.081.168-.248.607-.374 1.305-.374.372 0 .68.036.692.038.04.004.077.027.1.061 0 0 .12.177.315.472a.441.441 0 0 1 .049-.106c.264-.423 1.042-.455 1.275-.455.379 0 .704.068.868.181.253.176 1.153 1.426 1.892 2.556.688.07 1.472.15 2.395.236 1.091.101 2.079.56 2.938 1.364.787-1.345 1.826-2.97 2.44-3.304a.8.8 0 0 1 .386-.103c.695 0 1.198.966 1.332 1.434.18.627.554 1.854 1.064 3.426.825.615 1.618 1.618 2.142 2.707.634-.121 2.427-.526 4.738-1.557 3.326-1.483 5.38-2.896 5.93-3.294.856-.615 2.196-1.359 2.576-1.359.127 0 .178.068.198.108a.14.14 0 0 1-.074.194c-.014.006-1.492.616-2.5 1.559-.695.648-3.868 2.26-6.409 3.498-.92.448-3.296 1.292-4.095 1.554l.053.34.051.33c.287.08.824.158 1.566.158.988 0 2.59-.137 4.608-.788 1.516-.49 4.343-1.793 5.547-2.442.95-.51 2.77-.715 3.37-.715.121 0 .247 0 .282.118a.158.158 0 0 1-.066.167c-.05.033-.118.04-.319.059a9.336 9.336 0 0 0-2.529.57c-.396.149-1.16.522-2.046.955-1.332.651-2.843 1.39-3.829 1.729-1.344.464-3.58 1.005-5.457 1.005-.396 0-.766-.024-1.102-.071a.817.817 0 0 1-.126.315c.773.443 2.44 1.342 4.04 1.835 1.576.485 3.289 1.097 4.945 1.688 1.392.498 2.71.967 3.902 1.35.156-.015.577.083 1.036.184l.397.086c.856.18 1.454.66 1.479.68a.144.144 0 0 1 .042.16.139.139 0 0 1-.138.092c-.05-.002-1.246-.05-1.573-.118-.187-.04-1.72-.568-2.122-.801-1.506-.357-2.992-.87-4.564-1.414-1.288-.444-2.618-.905-4.083-1.324a29.42 29.42 0 0 1-3.749-1.362c.675 1.87 1.43 3.942 2.221 5.664.81 1.756 1.348 2.282 1.353 2.287.046.062 2.695 3.906 7.126 7.068a36.327 36.327 0 0 1 2.38 1.842c.815.676 1.224 1.016 2.508 1.58 1.723.76 3.179 1.01 5.505.975.116-.002.223-.006.321-.01.115-.004.218-.007.31-.007.48 0 .766.123.806.75a.215.215 0 0 1-.047.131c-.054.057-.13.064-.184.064-.087 0-.21-.021-.366-.048a4.476 4.476 0 0 0-.75-.085h-.064c-.13.005-.272.006-.422.006-.995 0-2.965-.102-4.986-.797-3.72-2.003-5.451-3.556-7.64-5.522-.42-.377-.857-.769-1.328-1.182-1.05-.92-2.985-3.117-3.182-3.34-.203-.115-1.613-.934-1.81-1.711-.17-.464-.438-1.206-.758-2.09-.591-1.64-1.36-3.767-2.035-5.611a2.73 2.73 0 0 1-.768.13c.712 2.8 1.464 5.482 2.122 7.57 1.062 3.366 2.184 5.197 2.195 5.215.021.02 3.638 4.032 7.113 7.078 3.035 2.656 7.271 5.819 9.175 6.995 1.234.762 2.22.91 2.75.99.293.044.426.064.492.17.035.058.06.164-.03.332-.12.214-.448.524-.725.457-.574-.134-1.532-.54-2.501-1.06-3.85-2.065-11.784-9.185-15.017-12.15a17.102 17.102 0 0 1-2.096-2.339c-.025-.02-1.034-.985-1.454-2.543-.352-1.306-2.32-8.413-2.998-10.864-.685-.23-1.297-.709-1.823-1.421a3.277 3.277 0 0 1-.599-.433 8.665 8.665 0 0 1-.148.844.145.145 0 0 1-.083.1c-.246.105-.424.309-.65.567-.254.292-.569.653-1.1.99-.024.081-.054.16-.09.24-.398.907-1.52 2.206-2.167 2.343-.508.109-1.34-.424-1.597-.605-.215.125-.8.439-1.276.439a.703.703 0 0 1-.483-.163c-.603-.538-.994-1.572-1.134-1.991-.16-.49-.31-1.211-.41-1.748l-.063-.057c-.63-.568-1.487-1.34-2.81-2.06a150.411 150.411 0 0 0-1.796 6.443c-.267 1.055-.5 2.101-.727 3.113-.418 1.87-.779 3.484-1.142 4.148-.227.415-.601.896-1.253 1.608-.488.847-1.08 1.85-1.778 3.04-1.148 1.948-2.576 4.372-4.407 7.537-.908 1.568-3.325 3.483-5.09 4.882-.616.488-1.15.911-1.531 1.247a.155.155 0 0 1-.044.027c-.161.06-.319.091-.469.091-.312 0-.525-.134-.62-.26-.063-.086-.085-.178-.062-.26.039-.14.208-.245.788-.595 1.158-.697 3.567-2.148 5.963-5.056.73-1.213 1.569-2.705 2.457-4.286.626-1.113 1.269-2.256 1.919-3.382a86.941 86.941 0 0 0-4.174 4.658c-1.647 1.983-4.398 3.524-6.871 4.77-.252.225-.541.355-.805.355-.275 0-.508-.139-.672-.4-.078-.125-.096-.236-.053-.334.077-.173.301-.213.561-.259.19-.034.404-.071.519-.16a.126.126 0 0 1 .038-.023c1.862-.685 4.258-1.765 6.283-4.048 1.092-1.162 2.135-2.39 3.142-3.576 1.363-1.603 2.77-3.26 4.383-4.863.313-.492.603-.927.869-1.308.092-.558 1.352-8.173 2.047-11.778.046-.236.087-.503.128-.83-.586.205-1.244.448-1.936.703-1.68.619-3.58 1.32-5.698 1.958a225.422 225.422 0 0 1-.954 4.69c-.185.858-.35 1.839-.51 2.789-.324 1.933-.52 3.038-.78 3.287-1.336.856-5.534 6.354-7.551 8.996-.437.573-.78 1.021-.98 1.275-1.096 1.39-3.438 3.065-6.112 4.374a81.805 81.805 0 0 0-2.902 1.5c-.554.3-.782.423-1.56.744a1.006 1.006 0 0 1-.382.065c-.32 0-.97-.143-1.016-.405-.013-.078.02-.178.156-.228.411-.151 2.636-1.17 5.205-2.57 1.48-.804 4.554-2.475 6.114-4.264.692-.792 2.132-2.702 3.658-4.726 1.754-2.327 3.569-4.732 4.565-5.872.516-1.45 1.124-5.153 1.568-7.861.085-.517.164-1.001.237-1.433-.345.095-.693.19-1.047.278a53.75 53.75 0 0 0-.487 3.698c-.274 3.038-.547 4.483-.914 4.833-1.575 1.01-9.937 9.945-11.145 11.478-.789.997-3.278 2.092-5.686 3.15-1.187.521-2.309 1.013-3.171 1.472-.44.231-.843.447-1.212.643-2.235 1.193-3.255 1.736-4.13 1.736a1.85 1.85 0 0 1-.342-.03c-.285-.048-.818-.606-.839-.87zm30.786-39.08c-.15.477-.455 1.61-.837 3.182l.322.022.103.007c.213-1.282.412-2.294.594-3.012a4.958 4.958 0 0 0-.182-.199zm2.784 3.53a174.33 174.33 0 0 0-1.35-1.775c-.092.447-.195.977-.31 1.575.53.056 1.077.122 1.66.2zm8.332-.94c.182.024.39.051.627.08-.358-.466-.611-.682-.778-.78a.714.714 0 0 0-.142.242c.095.148.194.3.293.458zM39.496 6.33l.001.015c.265-.127.503-.255.709-.38l.12-.95c-.344-.558-.621-.97-.797-1.187-.216.332-.112 1.572-.033 2.502zm-.51 4.657c-.21.923-.472 2.117-.728 3.404.31-1.1.569-1.947.775-2.533.1-.285.197-.604.294-.97-.11.03-.223.063-.34.099z"/></g></g></svg>