<?xml version="1.0" encoding="utf-8"?>
<!-- Generator: Adobe Illustrator 17.0.0, SVG Export Plug-In . SVG Version: 6.00 Build 0)  -->
<!DOCTYPE svg PUBLIC "-//W3C//DTD SVG 1.1//EN" "http://www.w3.org/Graphics/SVG/1.1/DTD/svg11.dtd">
<svg version="1.1" id="Forma_1_copy_2_1_" xmlns="http://www.w3.org/2000/svg" xmlns:xlink="http://www.w3.org/1999/xlink" x="0px"
	 y="0px" width="78px" height="55px" viewBox="0 0 78 55" enable-background="new 0 0 78 55" xml:space="preserve">
<g id="Forma_1_copy_2">
	<g>
		<path fill-rule="evenodd" clip-rule="evenodd" fill="#2F2F2F" d="M76.064,31.562c-0.947,0.564-2.422,0.967-4.334,0.021
			c0.472-1.059,0.72-2.005,0.754-2.948c0.019-0.943-0.175-1.903-0.588-2.988c1.961-0.829,3.411-0.339,4.325,0.281
			c0.18,0.122,0.42,0.117,0.594-0.013c0.173-0.131,0.24-0.356,0.164-0.557c-1.45-3.886-5.888-3.843-7.663-3.659
			c-1.919-1.919-4.313-3.16-6.033-3.212c-2.181-0.065-4.133,1.755-5.288,4.526c-0.651-0.768-1.44-1.412-2.34-1.897l3.519-8.354
			c0,0,10.65,2.063,16.079-6.398c0.107-0.167,0.068-0.386-0.09-0.509c-0.158-0.123-0.386-0.111-0.528,0.029
			c-2.657,2.613-7.828,5.895-16.257,4.33c-0.551-0.102-1.101,0.18-1.324,0.682l-3.75,8.437c-0.003-0.001-0.006-0.002-0.008-0.003
			l-0.03,0.088l-0.36,0.81c-0.303-0.05-0.603-0.107-0.919-0.117c-0.869-0.026-2.329,0.238-4.093,0.666
			C48.62,7.592,38.864,1.611,35.963,0.132c-0.452-0.231-1.008-0.111-1.315,0.284c-0.177,0.227-0.244,0.516-0.186,0.795
			c0.058,0.28,0.236,0.521,0.488,0.665c11.53,6.558,10.85,17.624,10.596,19.794c-2.656,0.803-6.765,1.789-6.765,1.789
			c-0.806-5.533-3.771-9.626-9.915-9.92l-2.536-8.91c-0.128-0.445-0.503-0.805-0.997-0.897L12.576,1.37l-0.092-0.017
			c-0.168-0.03-0.344-0.015-0.513,0.047L1.357,5.468C1.206,5.526,1.115,5.682,1.151,5.844c0.039,0.177,0.219,0.291,0.4,0.253
			l10.798-2.23l11.733,2.172l2.201,7.739c-6.396,1.383-15.995,8.086-20.228,11.22c-0.519,0.384-0.834,0.973-0.867,1.608H5.188
			c0,0.002,0,0.003,0,0.005c0,0.002,0,0.003,0,0.005h0.001c-0.003,0.635,0.278,1.242,0.775,1.657
			c4.051,3.384,13.261,10.652,19.569,12.417l-2.63,7.594l-11.835,1.463L0.414,46.872C0.234,46.823,0.049,46.926,0,47.101
			c-0.045,0.159,0.037,0.321,0.185,0.388l10.37,4.697c0.165,0.073,0.34,0.098,0.509,0.078l0.093-0.011l12.867-1.591
			c0.498-0.063,0.894-0.399,1.046-0.836l3.029-8.743c6.151,0.076,9.338-3.832,10.451-9.307c0,0,4.047,1.232,6.654,2.193
			c0.133,2.181,0.194,13.27-11.682,19.124c-0.26,0.128-0.451,0.359-0.524,0.634c-0.074,0.276-0.022,0.569,0.141,0.805
			c0.284,0.413,0.833,0.566,1.297,0.363c2.978-1.303,13.052-6.687,13.062-19.893c1.737,0.533,3.179,0.885,4.049,0.911
			c0.316,0.009,0.619-0.03,0.924-0.061l0.314,0.83l0.025,0.09c0.003-0.002,0.006-0.002,0.009-0.003l3.273,8.648
			c0.194,0.513,0.728,0.829,1.284,0.76c8.502-1.056,13.481,2.531,15.988,5.299c0.134,0.148,0.361,0.174,0.525,0.06
			c0.165-0.113,0.216-0.329,0.118-0.503c-4.948-8.774-15.695-7.353-15.695-7.353l-3.048-8.552c0.927-0.429,1.75-1.025,2.443-1.753
			c0.998,2.835,2.845,4.77,5.027,4.836c1.72,0.052,4.179-1.043,6.202-2.844c1.761,0.291,6.19,0.601,7.855-3.192
			c0.086-0.196,0.033-0.425-0.133-0.565C76.49,31.47,76.25,31.45,76.064,31.562z"/>
	</g>
</g>
</svg>
