<svg xmlns="http://www.w3.org/2000/svg" width="19" height="19" viewBox="0 0 19 19"><g><g><path fill="#fff" d="M18.532 17.198l-.837.822-.018-.015a4.94 4.94 0 0 1-2.42.988c-.191.02-4.627.437-10.132-5.083C1.143 9.917-.325 6.974.063 3.754c.045-.401.144-.802.303-1.222.172-.441.404-.85.681-1.205l-.023-.022.827-.834C2.457-.137 3.425-.154 4.008.43L6.94 3.372c.583.585.566 1.555-.04 2.162l-.487.49-.992.993.16.286c.518.936 1.227 2.22 2.575 3.571 1.344 1.349 2.622 2.06 3.555 2.578l.291.163 1.478-1.482c.605-.606 1.573-.624 2.157-.04l2.933 2.941c.583.586.566 1.556-.039 2.164zm-.612-1.511l-2.932-2.94c-.224-.226-.61-.207-.856.04l-1.98 1.985-.308-.183a21.009 21.009 0 0 0-.579-.33c-.98-.545-2.323-1.291-3.759-2.732-1.44-1.443-2.185-2.792-2.73-3.777-.115-.21-.222-.402-.324-.574l-.183-.309L6.25 4.883c.247-.248.264-.633.04-.858L3.357 1.083c-.225-.226-.609-.206-.855.04l-.51.517a3.755 3.755 0 0 0-.767 1.225c-.13.342-.212.67-.249.996-.295 2.457.409 4.994 4.8 9.396 5.164 5.178 9.336 4.821 9.378 4.817.334-.04.66-.122.993-.25a3.689 3.689 0 0 0 1.218-.769l.146-.142.37-.369c.246-.248.263-.632.04-.857z"/></g></g></svg>