<svg xmlns="http://www.w3.org/2000/svg" width="88" height="78" viewBox="0 0 88 78"><g><g><path fill="#fff" d="M86.917 64.25a1.085 1.085 0 0 1-1.083-1.082v-8.101a4.638 4.638 0 0 0-1.677-3.59c-7.232-5.955-15.096-9.906-16.593-10.646-.56-.27-.902-.83-.902-1.443V28.002c0-.36.18-.703.487-.901a4.234 4.234 0 0 0 1.894-3.537V11.745c0-5.268-4.293-9.562-9.56-9.562H56.94c-5.266 0-9.559 4.294-9.559 9.562v11.819c0 1.426.704 2.742 1.894 3.537.307.198.487.54.487.901v11.386c0 .613-.343 1.172-.902 1.443-1.497.722-9.343 4.691-16.593 10.646a4.638 4.638 0 0 0-1.678 3.59v8.101c0 .596-.487 1.083-1.082 1.083a1.085 1.085 0 0 1-1.082-1.083v-8.101c0-2.057.902-3.97 2.471-5.268 7.016-5.774 14.591-9.726 16.702-10.772V28.526a6.396 6.396 0 0 1-2.381-4.98V11.728C45.217 5.25 50.483 0 56.94 0h2.544c6.475 0 11.723 5.268 11.723 11.728v11.818c0 1.949-.884 3.77-2.38 4.98v10.5c2.11 1.047 9.685 4.999 16.7 10.773A6.692 6.692 0 0 1 88 55.067v8.101c0 .596-.487 1.083-1.082 1.083zM33.313 42.167c0 .596-.487 1.083-1.082 1.083a1.086 1.086 0 0 1-1.082-1.083v-7.614c0-.36.18-.704.487-.902a3.225 3.225 0 0 0 1.46-2.707v-9.616c0-4.168-3.39-7.578-7.575-7.578h-2.074c-4.166 0-7.575 3.391-7.575 7.578v9.616c0 1.083.559 2.094 1.46 2.707.307.198.488.541.488.902v9.274c0 .578-.325 1.1-.848 1.353-1.208.596-7.593 3.807-13.473 8.643a3.519 3.519 0 0 0-1.299 2.76v6.586c0 .596-.487 1.083-1.082 1.083-.595 0-1.082-.487-1.118-1.065v-6.585c0-1.732.757-3.338 2.092-4.439 5.61-4.6 11.67-7.794 13.527-8.733v-8.335a5.465 5.465 0 0 1-1.93-4.15v-9.617c0-5.377 4.365-9.744 9.74-9.744h2.074c5.375 0 9.74 4.367 9.74 9.744v9.616a5.406 5.406 0 0 1-1.93 4.15zm20.994-.577c.595 0 1.082.487 1.082 1.082 0 .83.361 1.57.938 2.093a.798.798 0 0 1 .27.217 2.977 2.977 0 0 0 1.624.505c1.57 0 2.832-1.28 2.832-2.833 0-.595.487-1.082 1.082-1.082a1.09 1.09 0 0 1 1.082 1.1 5.008 5.008 0 0 1-1.226 3.266l1.19 27.552c.018.325-.126.632-.36.848l-3.752 3.392c-.199.18-.47.271-.722.271s-.523-.09-.721-.271l-3.806-3.446a1.025 1.025 0 0 1-.36-.848l1.226-27.245a4.965 4.965 0 0 1-1.461-3.519c0-.595.487-1.082 1.082-1.082zm4.04 33.867l2.634-2.364-1.1-25.711a5.1 5.1 0 0 1-1.66.288c-.505 0-.974-.09-1.425-.216L55.642 73.02z"/></g></g></svg>