<?xml version="1.0" encoding="utf-8"?>
<!-- Generator: Adobe Illustrator 17.0.0, SVG Export Plug-In . SVG Version: 6.00 Build 0)  -->
<!DOCTYPE svg PUBLIC "-//W3C//DTD SVG 1.1//EN" "http://www.w3.org/Graphics/SVG/1.1/DTD/svg11.dtd">
<svg version="1.1" id="Shape_12_1_" xmlns="http://www.w3.org/2000/svg" xmlns:xlink="http://www.w3.org/1999/xlink" x="0px"
	 y="0px" width="74px" height="65px" viewBox="0 0 74 65" enable-background="new 0 0 74 65" xml:space="preserve">
<g id="Shape_12">
	<g>
		<path fill-rule="evenodd" clip-rule="evenodd" fill="#2F2F2F" d="M54.238,51.025h6.542V30.753h-6.542V51.025z M73.934,19.747
			L68.111,1.033C67.919,0.419,67.349,0,66.703,0H7.323C6.678,0,6.107,0.419,5.916,1.033L0.093,19.747
			c-0.139,0.446-0.056,0.93,0.221,1.306C0.592,21.429,1.032,21.65,1.5,21.65h1.461v41.881c0,0.811,0.66,1.468,1.474,1.468h65.156
			c0.814,0,1.474-0.657,1.474-1.468V21.65h1.461c0.468,0,0.909-0.222,1.186-0.597C73.99,20.678,74.072,20.193,73.934,19.747z
			 M22.735,52.493c0,0.811-0.66,1.468-1.474,1.468h-9.489c-0.814,0-1.474-0.657-1.474-1.468V29.285c0-0.811,0.66-1.468,1.474-1.468
			h9.489c0.814,0,1.474,0.658,1.474,1.468V52.493z M24.24,14.919v3.795H3.5L8.409,2.936H33.96l-9.372,11.035
			C24.364,14.235,24.24,14.572,24.24,14.919z M36.866,11.842c3.078,0,5.583,2.495,5.583,5.562c0,3.067-2.505,5.562-5.583,5.562
			s-5.582-2.495-5.582-5.562C31.284,14.337,33.788,11.842,36.866,11.842z M43.831,62.063H30.196v-10.88h1.095
			c0.814,0,1.474-0.657,1.474-1.468c0-0.81-0.66-1.468-1.474-1.468h-1.095V37.441h13.635V62.063z M63.727,52.493
			c0,0.811-0.66,1.468-1.474,1.468h-9.489c-0.814,0-1.474-0.657-1.474-1.468V29.285c0-0.811,0.66-1.468,1.474-1.468h9.489
			c0.814,0,1.474,0.658,1.474,1.468V52.493z M49.786,18.714v-3.795c0-0.347-0.124-0.683-0.349-0.948L40.066,2.936h25.551
			l4.909,15.778H49.786z M13.246,51.025h6.542V30.753h-6.542V51.025z M36.866,20.03c1.453,0,2.636-1.178,2.635-2.625
			c0-1.448-1.182-2.626-2.635-2.626c-1.453,0-2.635,1.178-2.635,2.626C34.231,18.852,35.413,20.03,36.866,20.03z"/>
	</g>
</g>
</svg>
