<svg xmlns="http://www.w3.org/2000/svg" width="70" height="41" viewBox="0 0 70 41"><g><g><path fill="#2f2f2f" d="M58.228 4.339c-.156-2.03-2.416-4.143-4.755-4.3-2.338-.154-4.6.08-3.196 1.72 1.404 1.641 1.87 3.207 1.17 2.974-.704-.238-3.508-1.878-11.927-.548-1.091.31-5.612-3.364-11.77-3.442C21.591.665 17.07 2.426 10.6 19.918c-.622 1.546-4.988 5.142-7.327 6.86-2.337 1.724-3.27 3.65-3.272 7.09-.005 4.817 6.858 7.211 21.59 7.133 14.733-.078 22.529-2.49 22.529-2.49C27.516 40.306 2.1 41.3 2.1 33.553c0-5.474 7.489-7.551 9.593-7.475 2.105.079 3.587 3.361 8.808 1.486.858-.079.391 1.173-.312 1.954-.701.78-.155 1.72 2.573 1.72 2.727 0 10.89.08 12.615 0 1.727-.078 3.13-3.127-2.481-3.362-4.905.082 3.179-1.531 4.208-5.786.188-1.041 2.338-1.097 4.21-1.092 5.493.007 9.118 10.13 10.289 10.168 1.168.04 4.754.43 4.676-1.133-.077-1.564-3.039-.86-3.664-1.72-.624-.858-2.65-4.113-1.948-5.598.701-1.482 3.352-5.63 6.47-6.097 3.117-.471 11.225 1.952 12.549 0 1.325-1.956-1.794-3.054-4.21-7.589-1.012-2.266-2.337-4.611-7.248-4.691z"/></g></g></svg>