<?xml version="1.0" encoding="utf-8"?>
<!-- Generator: Adobe Illustrator 17.0.0, SVG Export Plug-In . SVG Version: 6.00 Build 0)  -->
<!DOCTYPE svg PUBLIC "-//W3C//DTD SVG 1.1//EN" "http://www.w3.org/Graphics/SVG/1.1/DTD/svg11.dtd">
<svg version="1.1" id="Forma_1_copy_1_" xmlns="http://www.w3.org/2000/svg" xmlns:xlink="http://www.w3.org/1999/xlink" x="0px"
	 y="0px" width="84px" height="44px" viewBox="0 0 84 44" enable-background="new 0 0 84 44" xml:space="preserve">
<g id="Forma_1_copy">
	<g>
		<path fill-rule="evenodd" clip-rule="evenodd" fill="#2F2F2F" d="M83.003,14.005c-2.025-1.574-2.852-2.32-3.002-3.82
			c-0.153-1.499-1.009-5.076-4.659-5.394c0,0-8.161-10.752-6.368-0.047c-2.102,0.375-2.179,0.872-4.504,1.621
			c-2.331,0.747-11.038-0.161-16.992-2.097C19.422-3.953-2.539,35.355,0.236,37.53c2.781,2.171,11.569-3.971,18.776-13.786
			c0.226,2.622,0.675,5.545-0.976,6.969c-1.653,1.423-2.028,1.497-0.374,4.87c1.652,3.369,3.382,8.164,7.814,8.316
			c4.43,0.152,6.605,0.228,6.532-0.711c-0.074-0.938-2.392-2.062-4.958-2.268c-0.796-0.039-2.694-0.477-3.53-2.865
			c-1.301-3.72-0.374-4.27,3.005-5.544c3.381-1.273,4.956-1.572,8.037-3.82c2.327,0.599,14.271,5.169,20.652,1.57
			c-0.226,1.051,1.409,4.191,3.229,8.167c2.481,3.672,3.455,5.728,6.912,5.562c3.456-0.166,5.707,0.365,5.707-0.801
			c0-1.164-1.953-2.569-4.129-2.043c-1.354,0.074-3.683-1.145-4.509-5.488c-0.731-3.847-1.157-12.167,2.379-16.49l0.01-0.003
			c0.361,1.012,0.96,2.103,1.906,3.276c3.221-6.346,7.413-6.065,7.413-6.065h0.001h0.004C84.599,17.683,85.032,15.579,83.003,14.005
			z"/>
	</g>
</g>
</svg>
