<svg xmlns="http://www.w3.org/2000/svg" width="72" height="83" viewBox="0 0 72 83"><g><g><path fill="#fff" d="M71.914 43.171v.07a108.9 108.9 0 0 1-.104 3.636c-.259 5.635-2.277 10.96-6.193 16.269-4.45 6.032-10.523 11.03-18.58 15.286-2.432 1.276-4.95 2.362-7.4 3.413-.587.259-1.173.5-1.76.758-.57.259-1.26.397-1.915.397a4.226 4.226 0 0 1-1.5-.259c-9.972-3.757-17.873-8.668-24.17-15.01C5.342 62.748 2.288 57.492.96 51.684.39 49.186.08 46.722.062 44.343c-.069-6.755-.069-13.632-.051-20.267v-7.187c0-2.964 1.259-4.308 4.174-4.498 9.54-.586 18.718-4.136 28.862-11.133C34.013.586 34.858 0 36.014 0c1.156 0 1.967.569 2.984 1.275 7.591 5.274 14.44 8.462 21.582 10.03 1.828.414 3.709.638 5.71.862.638.086 1.294.155 1.95.241 3.087.397 3.743 2.482 3.743 4.154v11.047L72 31.59v.362zM69.517 31V15.25c-.554-.073-1.107-.129-1.68-.202-2.16-.259-4.393-.517-6.608-.996-8.177-1.807-16.317-5.57-24.864-11.526-.11-.073-.24-.165-.35-.24-.13.093-.259.167-.351.24-11.555 7.967-22.095 12.024-33.17 12.762v7.56c0 7.1-.02 14.42.055 21.63.018 2.177.295 4.463.83 6.787 1.2 5.292 4.043 10.124 8.657 14.79 6.184 6.25 14.03 11.1 23.96 14.862h.055c.628-.276 1.256-.534 1.883-.81 2.51-1.089 5.132-2.214 7.55-3.486 7.937-4.186 13.88-9.073 18.2-14.918 3.581-4.869 5.427-9.664 5.649-14.66.037-1.163.073-2.398.092-3.8v-.424l.092-11.71V31zm-20.754 6.398L33.116 53.03a2.275 2.275 0 0 1-1.64.689c-.586 0-1.19-.242-1.638-.69l-6.624-6.618c-.915-.913-1.752-1.96-.838-2.874.915-.914 1.962-.08 2.877.834l6.224 6.65L46.74 35.773c.914-.913 1.543-1.33 2.44-.417.915.914.496 1.128-.418 2.041z"/></g></g></svg>