<svg xmlns="http://www.w3.org/2000/svg" width="54" height="62" viewBox="0 0 54 62"><g><g><path fill="#cd272c" d="M53.935 32.249v.051a81.16 81.16 0 0 1-.077 2.717c-.194 4.209-1.708 8.187-4.645 12.152-3.338 4.506-7.893 8.24-13.935 11.42-1.824.952-3.713 1.763-5.55 2.548-.44.193-.88.374-1.32.567a3.587 3.587 0 0 1-1.436.296 3.18 3.18 0 0 1-1.126-.193C18.368 59 12.442 55.33 7.719 50.594c-3.713-3.72-6.003-7.647-7-11.986-.426-1.866-.66-3.707-.672-5.484-.052-5.046-.052-10.183-.039-15.14v-5.368c0-2.214.945-3.218 3.131-3.36 7.155-.438 14.038-3.09 21.646-8.317C25.51.438 26.144 0 27.01 0c.867 0 1.475.426 2.239.954 5.693 3.939 10.83 6.32 16.186 7.492 1.371.309 2.782.476 4.282.644.48.064.97.115 1.462.18 2.316.296 2.808 1.854 2.808 3.103v8.251L54 23.597v.27zm-3.441-8.574V12.68c-.389-.052-.777-.09-1.178-.142-1.514-.18-3.08-.36-4.632-.695-5.731-1.262-11.437-3.888-17.428-8.047-.077-.05-.168-.115-.246-.167-.09.064-.18.116-.245.167-8.1 5.562-15.488 8.394-23.25 8.91v5.278c0 4.956-.014 10.067.038 15.1.013 1.52.207 3.116.582 4.738.841 3.695 2.834 7.068 6.068 10.325 4.335 4.364 9.834 7.75 16.795 10.376h.038c.44-.193.88-.373 1.32-.567 1.76-.76 3.597-1.544 5.292-2.433 5.563-2.922 9.73-6.334 12.757-10.414 2.51-3.4 3.804-6.746 3.96-10.235.025-.811.051-1.674.064-2.652v-.296l.065-8.175v-.077zm-13.922 4.26L24.837 39.613c-.337.348-.79.515-1.23.515-.44 0-.892-.18-1.228-.515L17.41 34.67a1.727 1.727 0 0 1 0-2.46 1.748 1.748 0 0 1 2.471 0l3.727 3.721 10.506-10.453a1.732 1.732 0 0 1 2.458 0 1.727 1.727 0 0 1 0 2.459z"/></g></g></svg>