<svg xmlns="http://www.w3.org/2000/svg" width="46" height="56" viewBox="0 0 46 56"><g><g><path fill="#2f2f2f" d="M41.895 7.02a.956.956 0 0 0-1.336-.184.945.945 0 0 0-.188 1.33c.06.078 5.85 7.906 2.822 18.708l-15.586 8.2a6.814 6.814 0 0 0-.77-.631 11.466 11.466 0 0 0 6.963-6.975.937.937 0 0 0 .184-.078l4.776-2.848a.947.947 0 0 0 .463-.813c0-18.145-5.818-23.292-6.065-23.501a.96.96 0 0 0-1.348.105.946.946 0 0 0 .107 1.338c.052.046 5.285 4.682 5.394 21.522l-2.93 1.746c.042-.398.066-.8.066-1.21 0-6.28-5.142-11.39-11.462-11.39-6.32 0-11.462 5.11-11.462 11.39 0 .41.023.812.066 1.21l-2.93-1.746c.109-16.64 5.321-21.457 5.4-21.527a.945.945 0 0 0 .1-1.333.959.959 0 0 0-1.346-.105c-.248.21-6.066 5.356-6.066 23.5a.95.95 0 0 0 .463.814l4.776 2.848a.96.96 0 0 0 .184.078 11.465 11.465 0 0 0 6.964 6.975c-.274.192-.53.402-.771.63L2.777 26.875C-.252 16.072 5.539 8.244 5.599 8.165a.946.946 0 0 0-.188-1.329.957.957 0 0 0-1.336.185c-.27.355-6.578 8.824-3.02 20.773a.95.95 0 0 0 .469.57l14.644 7.704H4.836a.955.955 0 0 0-.885.593C.779 44.448 5.687 54.125 5.897 54.534a.957.957 0 0 0 1.285.412.947.947 0 0 0 .415-1.278c-.046-.09-4.465-8.795-2.098-15.702H16.58a6.477 6.477 0 0 0-.223 1.067l-5.924.84a.954.954 0 0 0-.726.53c-3.843 7.954 3.709 15.045 4.032 15.343a.96.96 0 0 0 1.35-.05.947.947 0 0 0-.051-1.342c-.067-.062-6.545-6.14-3.813-12.675l5.17-.735a6.636 6.636 0 0 0 2.636 4.265 3.785 3.785 0 0 0-1.777 3.198c0 2.092 1.713 3.796 3.82 3.796a.952.952 0 0 0 .956-.95.951.951 0 0 0-.955-.949c-1.053 0-1.91-.85-1.91-1.897 0-1.048.857-1.899 1.91-1.899a.931.931 0 0 0 .49-.155c.458.1.933.155 1.42.155.487 0 .962-.056 1.42-.155.145.09.307.155.49.155 1.054 0 1.91.85 1.91 1.899a1.906 1.906 0 0 1-1.91 1.897.951.951 0 0 0-.955.95c0 .524.427.949.955.949 2.107 0 3.82-1.704 3.82-3.796a3.781 3.781 0 0 0-1.777-3.197 6.64 6.64 0 0 0 2.636-4.266l5.172.735c2.72 6.517-3.747 12.614-3.815 12.675a.945.945 0 0 0-.048 1.342.956.956 0 0 0 1.348.05c.324-.298 7.874-7.39 4.032-15.344a.953.953 0 0 0-.725-.528l-5.925-.841a6.482 6.482 0 0 0-.224-1.067H40.47c2.36 6.894-2.051 15.612-2.098 15.702a.948.948 0 0 0 .85 1.382.958.958 0 0 0 .85-.516c.211-.409 5.119-10.087 1.947-17.873a.954.954 0 0 0-.886-.593H29.802l14.644-7.705a.949.949 0 0 0 .469-.569c3.559-11.95-2.75-20.418-3.02-20.773z"/></g></g></svg>