<svg xmlns="http://www.w3.org/2000/svg" width="84" height="44" viewBox="0 0 84 44"><g><g><path fill="#2f2f2f" d="M19.012 23.745c.226 2.622.676 5.544-.976 6.969-1.653 1.422-2.028 1.496-.374 4.87 1.652 3.368 3.382 8.164 7.813 8.315 4.43.153 6.605.229 6.532-.71-.074-.939-2.392-2.062-4.957-2.269-.796-.038-2.695-.477-3.53-2.865-1.301-3.72-.375-4.27 3.004-5.544 3.381-1.274 4.956-1.572 8.037-3.82 2.327.598 14.271 5.168 20.653 1.57-.226 1.051 1.409 4.19 3.229 8.166 2.481 3.673 3.455 5.729 6.912 5.563 3.456-.166 5.707.364 5.707-.801 0-1.164-1.953-2.57-4.13-2.043-1.353.074-3.682-1.145-4.508-5.488-.731-3.848-1.157-12.167 2.38-16.49l.01-.003c.36 1.012.96 2.102 1.906 3.275 3.22-6.346 7.413-6.065 7.413-6.065h.006c10.46 1.309 10.893-.796 8.864-2.37-2.025-1.574-2.853-2.32-3.002-3.82-.153-1.498-1.01-5.076-4.659-5.394 0 0-8.161-10.752-6.368-.047-2.102.375-2.179.872-4.504 1.62-2.33.748-11.038-.16-16.991-2.096C19.422-3.953-2.54 35.355.236 37.531c2.78 2.171 11.569-3.971 18.776-13.786z"/></g></g></svg>